<svg xmlns="http://www.w3.org/2000/svg" width="1200" height="630" fill="none">
  <defs>
    <linearGradient id="bg" x1="0" y1="0" x2="1200" y2="630" gradientUnits="userSpaceOnUse">
      <stop offset="0%" stop-color="#0f172a"/>
      <stop offset="100%" stop-color="#1e3a5f"/>
    </linearGradient>
    <linearGradient id="accent" x1="0" y1="0" x2="200" y2="0" gradientUnits="userSpaceOnUse">
      <stop offset="0%" stop-color="#38bdf8"/>
      <stop offset="100%" stop-color="#818cf8"/>
    </linearGradient>
  </defs>
  <rect width="1200" height="630" fill="url(#bg)"/>
  <!-- Decorative circles -->
  <circle cx="1050" cy="120" r="200" fill="#38bdf8" opacity="0.06"/>
  <circle cx="150" cy="500" r="160" fill="#818cf8" opacity="0.06"/>
  <!-- Accent line -->
  <rect x="80" y="280" width="120" height="4" rx="2" fill="url(#accent)"/>
  <!-- Sparkles icon -->
  <g transform="translate(80, 320)" fill="#38bdf8">
    <path d="M12 2L14.5 9.5L22 12L14.5 14.5L12 22L9.5 14.5L2 12L9.5 9.5L12 2Z" opacity="0.9"/>
    <path d="M28 0L29.5 4.5L34 6L29.5 7.5L28 12L26.5 7.5L22 6L26.5 4.5L28 0Z" opacity="0.6" transform="scale(0.7) translate(10,-2)"/>
  </g>
  <!-- Brand name -->
  <text x="80" y="260" font-family="system-ui, -apple-system, sans-serif" font-size="72" font-weight="800" fill="#ffffff" letter-spacing="-2">FINTODO</text>
  <!-- Subtitle -->
  <text x="130" y="370" font-family="system-ui, -apple-system, sans-serif" font-size="36" font-weight="500" fill="#94a3b8">AI-консультація</text>
  <!-- Tagline -->
  <text x="80" y="440" font-family="system-ui, -apple-system, sans-serif" font-size="22" fill="#64748b">Податки · Бухгалтерія · Законодавство</text>
  <!-- Domain -->
  <text x="80" y="560" font-family="system-ui, -apple-system, sans-serif" font-size="20" fill="#475569">fintodo.com.ua</text>
  <!-- Bottom accent bar -->
  <rect x="0" y="620" width="1200" height="10" fill="url(#accent)"/>
</svg>
